# xmcd
#
# Track frame offsets:
#	150
#	16440
#	31310
#	59012
#	76655
#	95837
#	110379
#	127460
#	142327
#	159207
#	174352
#	186445
#
# Disc length: 2647 seconds
#
# Revision: 0
# Processed by: cddbd v1.5.1PL0 Copyright (c) Steve Scherf et al.
# Submitted via: dBpowerAMP V4.0
#
DISCID=a90a550c
DTITLE=Vinicius Silveira - One Man's Blues
DYEAR=2001
DGENRE=blues
TTITLE0=Window Sill
TTITLE1=Since You Came
TTITLE2=You Can Hide Yourself
TTITLE3=I Need Some Change
TTITLE4=Trouble in My Mind
TTITLE5=Leaving Blues
TTITLE6=Brown Boots
TTITLE7=I Don't Want
TTITLE8=She Told Me
TTITLE9=Evening Blues
TTITLE10=Shake it All Night Long
TTITLE11=Seven in  the Morning
EXTD=
EXTT0=
EXTT1=
EXTT2=
EXTT3=
EXTT4=
EXTT5=
EXTT6=
EXTT7=
EXTT8=
EXTT9=
EXTT10=
EXTT11=
PLAYORDER=
